# xmcd
#
# Track frame offsets: 
#        150
#        20822
#        41990
#        62475
#        81275
#        102167
#        126682
#        143267
#        161272
#        173490
#        189880
#        201717
#
# Disc length: 2887 seconds
#
# Revision: 4
# Processed by: cddbd v1.5.2PL0 Copyright (c) Steve Scherf et al.
# Submitted via: ExactAudioCopyFreeDBPlugin 1.0
#
DISCID=a30b450c
DTITLE=Blues Crossover - Where Blues Crosses Over
DYEAR=1999
DGENRE=Blues
TTITLE0=LUTHER ALLISON - You Can't Always Get What You Want
TTITLE1=WALTER TROUT - Livin' Every Day
TTITLE2=SPOOKY TOOTH - Sunshine
TTITLE3=THE NIGHTHAWKS - Jump Into My Fire
TTITLE4=AYNSLEY LISTER - Won't Take You Back
TTITLE5=BERNARD ALLISON - The Way Love Was Meant To Be
TTITLE6=ERIC BIBB - Walk The Walk
TTITLE7=FRIEND 'N FELLOW - Father's Home
TTITLE8=KEVIN COYNE - Sugar Candy Taxi
TTITLE9=STAVIN' CHAIN - Poison
TTITLE10=THE PALADINS - Slippin' In
TTITLE11=CANNED HEAT - Going Up The Country
EXTD=
EXTT0=
EXTT1=
EXTT2=
EXTT3=
EXTT4=
EXTT5=
EXTT6=
EXTT7=
EXTT8=
EXTT9=
EXTT10=
EXTT11=
PLAYORDER=
